<?xml version="1.0" encoding="UTF-8" standalone="no"?>
<!-- Created with Inkscape (http://www.inkscape.org/) -->

<svg
   version="1.1"
   id="svg1896"
   xml:space="preserve"
   width="682.66669"
   height="682.66669"
   viewBox="0 0 682.66669 682.66669"
   xmlns="http://www.w3.org/2000/svg"
   xmlns:svg="http://www.w3.org/2000/svg"><defs
     id="defs1900"><clipPath
       clipPathUnits="userSpaceOnUse"
       id="clipPath1910"><path
         d="M 0,512 H 512 V 0 H 0 Z"
         id="path1908" /></clipPath></defs><g
     id="g1902"
     transform="matrix(1.3333333,0,0,-1.3333333,0,682.66667)"><g
       id="g1904"><g
         id="g1906"
         clip-path="url(#clipPath1910)"><g
           id="g1912"
           transform="translate(504.5,256)"><path
             d="m 0,0 c 0,-137.243 -111.257,-248.5 -248.5,-248.5 -137.243,0 -248.5,111.257 -248.5,248.5 0,137.243 111.257,248.5 248.5,248.5 C -111.257,248.5 0,137.243 0,0"
             style="fill:#bee49d;fill-opacity:1;fill-rule:nonzero;stroke:none"
             id="path1914" /></g><g
           id="g1916"
           transform="translate(256,504.5)"><path
             d="m 0,0 c -5.038,0 -10.036,-0.168 -15,-0.463 130.256,-7.758 233.5,-115.832 233.5,-248.037 0,-132.205 -103.244,-240.279 -233.5,-248.037 4.964,-0.295 9.962,-0.463 15,-0.463 137.242,0 248.5,111.257 248.5,248.5 C 248.5,-111.257 137.242,0 0,0"
             style="fill:#a3d8a4;fill-opacity:1;fill-rule:nonzero;stroke:none"
             id="path1918" /></g><g
           id="g1920"
           transform="translate(256,47.5)"><path
             d="M 0,0 C -114.967,0 -208.5,93.533 -208.5,208.5 -208.5,323.467 -114.967,417 0,417 114.967,417 208.5,323.467 208.5,208.5 208.5,93.533 114.967,0 0,0"
             style="fill:#ffffff;fill-opacity:1;fill-rule:nonzero;stroke:none"
             id="path1922" /></g><g
           id="g1924"
           transform="translate(504.5,429)"><path
             d="m 0,0 c 0,-41.697 -33.803,-75.5 -75.5,-75.5 -41.697,0 -75.5,33.803 -75.5,75.5 0,41.697 33.803,75.5 75.5,75.5 C -33.803,75.5 0,41.697 0,0"
             style="fill:#a3d8a4;fill-opacity:1;fill-rule:nonzero;stroke:none"
             id="path1926" /></g><g
           id="g1928"
           transform="translate(429,504.5)"><path
             d="m 0,0 c -5.137,0 -10.151,-0.518 -15,-1.495 34.511,-6.958 60.5,-37.444 60.5,-74.005 0,-36.561 -25.989,-67.047 -60.5,-74.005 4.849,-0.977 9.863,-1.495 15,-1.495 41.697,0 75.5,33.803 75.5,75.5 C 75.5,-33.803 41.697,0 0,0"
             style="fill:#8fcc8f;fill-opacity:1;fill-rule:nonzero;stroke:none"
             id="path1930" /></g><g
           id="g1932"
           transform="translate(172.2031,224.7979)"><path
             d="M 0,0 5.734,-15.195 H -5.787 Z m -24.492,-43.237 c 3.866,-1.475 8.203,0.468 9.678,4.34 l 3.314,8.702 h 22.895 l 3.276,-8.681 c 1.475,-3.923 5.872,-5.801 9.665,-4.369 3.875,1.462 5.831,5.79 4.368,9.665 L 8.198,20.757 c -0.025,0.069 -0.052,0.137 -0.08,0.204 -1.354,3.295 -4.53,5.422 -8.092,5.422 H 0.018 c -3.565,-0.003 -6.741,-2.137 -8.09,-5.438 -0.023,-0.056 -0.045,-0.112 -0.067,-0.169 l -20.693,-54.335 c -1.475,-3.871 0.469,-8.204 4.34,-9.678 M 35.476,91.132 c 11.058,0 20.055,-8.997 20.055,-20.055 0,-11.059 -8.997,-20.056 -20.055,-20.056 -11.059,0 -20.056,8.997 -20.056,20.056 0,11.058 8.997,20.055 20.056,20.055 m 0,-55.111 c 19.33,0 35.055,15.726 35.055,35.056 0,19.329 -15.725,35.055 -35.055,35.055 -19.33,0 -35.056,-15.726 -35.056,-35.055 0,-19.33 15.726,-35.056 35.056,-35.056 M 44.797,18.48 v -54.708 c 0,-4.142 3.357,-7.5 7.5,-7.5 4.142,0 7.5,3.358 7.5,7.5 v 20.372 h 12.911 c 4.143,0 7.5,3.358 7.5,7.5 0,4.142 -3.357,7.5 -7.5,7.5 H 59.797 V 10.98 H 74.47 c 4.142,0 7.5,3.358 7.5,7.5 0,4.142 -3.358,7.5 -7.5,7.5 H 52.297 c -4.143,0 -7.5,-3.358 -7.5,-7.5 m -85.704,17.541 c 4.142,0 7.5,3.358 7.5,7.5 v 20.372 h 12.912 c 4.142,0 7.5,3.357 7.5,7.5 0,4.142 -3.358,7.5 -7.5,7.5 h -12.912 v 11.836 h 14.673 c 4.142,0 7.5,3.357 7.5,7.5 0,4.142 -3.358,7.5 -7.5,7.5 h -22.173 c -4.143,0 -7.5,-3.358 -7.5,-7.5 V 43.521 c 0,-4.142 3.357,-7.5 7.5,-7.5 m 320.662,193.378 -34.484,-34.484 -11.432,11.433 c -2.93,2.928 -7.678,2.928 -10.608,0 -2.928,-2.929 -2.928,-7.678 0,-10.607 l 13.908,-13.907 c 2.173,-2.172 5.06,-3.369 8.132,-3.369 3.072,0 5.959,1.197 8.132,3.369 l 36.959,36.958 c 2.929,2.929 2.929,7.678 0,10.607 -2.928,2.929 -7.676,2.93 -10.607,0 M -38.915,-25.602 c 1.416,7.928 -2.152,18.272 -16.411,23.532 -6.664,2.458 -12.875,5.133 -14.892,6.014 -1.196,1.012 -1.153,2.393 -1.069,2.975 0.123,0.856 0.755,2.953 3.955,3.917 7.426,2.239 14.374,-3.212 14.603,-3.394 3.17,-2.628 7.872,-2.208 10.525,0.95 2.665,3.17 2.256,7.901 -0.915,10.566 -0.53,0.447 -13.17,10.869 -28.539,6.241 -7.839,-2.362 -13.386,-8.549 -14.477,-16.149 -2.12,-14.773 8.156,-18.752 25.617,-25.193 1.773,-0.654 7.505,-3.078 6.836,-6.823 -0.506,-2.832 -4.019,-5.762 -9.025,-5.762 -5.308,0 -10.41,2.133 -13.647,5.706 -2.783,3.071 -7.527,3.3 -10.594,0.521 -3.07,-2.782 -3.303,-7.524 -0.522,-10.594 6.124,-6.758 15.15,-10.633 24.763,-10.633 11.911,0 21.917,7.623 23.792,18.126 m 363.712,56.804 c 0,-130.917 -109.619,-241 -241,-241 -133.422,0 -241,108.266 -241,241 0,133.633 108.172,241 241,241 36.222,0 70.892,-7.802 103.202,-23.172 -4.505,-6.99 -7.989,-14.692 -10.241,-22.903 -28.872,13.798 -60.796,21.075 -92.961,21.075 -119.103,0 -216,-96.897 -216,-216 0,-50.992 18.176,-100.523 51.179,-139.468 2.688,-3.173 7.424,-3.539 10.57,-0.873 3.16,2.678 3.551,7.41 0.873,10.57 -30.71,36.239 -47.622,82.326 -47.622,129.771 0,110.832 90.168,201 201,201 31.346,0 62.444,-7.414 90.282,-21.457 -0.17,-2.162 -0.282,-4.339 -0.282,-6.543 0,-45.766 37.233,-83 83,-83 2.204,0 4.381,0.112 6.542,0.282 14.043,-27.838 21.458,-58.937 21.458,-90.282 0,-110.832 -90.168,-201 -201,-201 -47.432,0 -93.508,16.904 -129.741,47.597 -3.161,2.678 -7.894,2.286 -10.571,-0.875 -2.677,-3.16 -2.286,-7.893 0.875,-10.57 38.94,-32.986 88.459,-51.152 139.437,-51.152 119.102,0 216,96.897 216,216 0,32.165 -7.277,64.09 -21.076,92.961 8.212,2.252 15.913,5.736 22.903,10.241 15.372,-32.308 23.173,-66.979 23.173,-103.202 m 15,173 c 0,17.315 -5.279,33.907 -15.269,47.984 -2.394,3.377 -7.077,4.174 -10.456,1.776 -3.379,-2.397 -4.174,-7.078 -1.776,-10.457 8.178,-11.526 12.501,-25.116 12.501,-39.303 0,-37.495 -30.505,-68 -68,-68 -37.495,0 -68,30.505 -68,68 0,37.495 30.505,68 68,68 11.264,0 22.418,-2.808 32.259,-8.122 3.647,-1.967 8.194,-0.608 10.163,3.036 1.968,3.645 0.608,8.195 -3.036,10.163 -12.024,6.492 -25.643,9.923 -39.386,9.923 -23.749,0 -45.185,-10.042 -60.328,-26.084 -34.822,17.076 -73.645,26.084 -112.672,26.084 -142.046,0 -256,-114.938 -256,-256 0,-139.059 114.811,-256 256,-256 138.792,0 256,116.258 256,256 0,39.029 -9.008,77.853 -26.084,112.673 16.042,15.143 26.084,36.578 26.084,60.327 M 186.903,89.502 c 13.081,0 14.098,-14.727 14.098,-19.241 0,-13.044 -6.924,-19.004 -13.785,-19.123 -1.825,-0.032 -4.932,-0.058 -7.876,-0.077 -0.02,6.267 -0.044,14.86 -0.044,19.259 0,3.686 -0.015,12.655 -0.025,19.182 z M 171.865,36.021 h 0.029 c 0.458,0.002 11.262,0.043 15.584,0.119 16.527,0.288 28.523,14.638 28.523,34.121 0,20.481 -11.693,34.241 -29.098,34.241 h -15.146 c -4.082,0.02 -7.527,-3.434 -7.5,-7.514 V 96.948 96.946 44.39 c -0.033,-4.347 2.999,-8.369 7.608,-8.369 m 38.478,-10.858 c -3.468,-2.265 -4.445,-6.912 -2.18,-10.38 l 16.378,-25.083 -0.063,-25.909 c -0.01,-4.143 3.339,-7.509 7.481,-7.519 h 0.019 c 4.133,0 7.49,3.346 7.5,7.481 l 0.063,25.937 16.25,24.962 c 2.26,3.472 1.278,8.118 -2.193,10.377 -3.471,2.259 -8.119,1.278 -10.377,-2.194 L 232.037,5.656 220.724,22.984 c -2.266,3.469 -6.912,4.444 -10.381,2.179 m -94.601,65.969 c 11.059,0 20.056,-8.997 20.056,-20.055 0,-11.059 -8.997,-20.056 -20.056,-20.056 -11.058,0 -20.055,8.997 -20.055,20.056 0,11.058 8.997,20.055 20.055,20.055 m 0,-55.111 c 19.33,0 35.056,15.726 35.056,35.056 0,19.329 -15.726,35.055 -35.056,35.055 -19.33,0 -35.055,-15.726 -35.055,-35.055 0,-19.33 15.725,-35.056 35.055,-35.056 M 128.266,10.88 c 4.142,0 7.5,3.358 7.5,7.5 0,4.142 -3.358,7.5 -7.5,7.5 h -23.01 c -4.143,0 -7.5,-3.358 -7.5,-7.5 v -54.608 c 0,-4.142 3.357,-7.5 7.5,-7.5 h 23.01 c 4.142,0 7.5,3.358 7.5,7.5 0,4.142 -3.358,7.5 -7.5,7.5 h -15.51 v 12.304 h 13.813 c 4.143,0 7.5,3.358 7.5,7.5 0,4.142 -3.357,7.5 -7.5,7.5 H 112.756 V 10.88 Z m 28.611,0.503 h 7.656 v -47.611 c 0,-4.142 3.358,-7.5 7.5,-7.5 4.143,0 7.5,3.358 7.5,7.5 v 47.611 h 7.779 c 4.143,0 7.5,3.358 7.5,7.5 0,4.142 -3.357,7.5 -7.5,7.5 h -30.435 c -4.143,0 -7.5,-3.358 -7.5,-7.5 0,-4.142 3.357,-7.5 7.5,-7.5"
             style="fill:#000000;fill-opacity:1;fill-rule:nonzero;stroke:none"
             id="path1934" /></g></g></g></g></svg>
